<?xml version="1.0" encoding="UTF-8" standalone="no"?>
<!DOCTYPE svg PUBLIC "-//W3C//DTD SVG 1.1//EN" "http://www.w3.org/Graphics/SVG/1.1/DTD/svg11.dtd">
<svg width="100%" height="100%" viewBox="0 0 16 16" version="1.1" xmlns="http://www.w3.org/2000/svg" xmlns:xlink="http://www.w3.org/1999/xlink" xml:space="preserve" style="fill-rule:evenodd;clip-rule:evenodd;stroke-linejoin:round;stroke-miterlimit:2;">
    <g transform="matrix(0.016,0,0,0.016,-4.04984,-12.822)">
        <path d="M1022.25,1181.15L1112.3,1030.38C1116.98,1022.33 1117.52,1007.09 1098.15,992.214C1079.63,977.988 1055.71,990.255 1051.14,998.306L959.099,1138.39C895.022,1109.12 830.951,1098.17 753.385,1098.17C675.818,1098.17 606.377,1110.02 542.3,1139.28L455.63,998.306C434.84,987.57 422.259,990.842 413.878,994.899C398.667,1002.26 398.632,1013.38 393.464,1031.28L479.941,1177.57C334.308,1282.77 269.709,1380.92 253.718,1550.3L1253.05,1550.3C1213.79,1372.86 1152.77,1277.4 1022.25,1181.15ZM523.949,1409.96C500.777,1409.96 482.065,1391.14 482.065,1368.08C482.065,1344.91 500.886,1326.19 523.949,1326.19C547.121,1326.19 565.833,1345.02 565.833,1368.08C565.942,1391.14 547.121,1409.96 523.949,1409.96ZM982.712,1409.96C959.54,1409.96 940.829,1391.14 940.829,1368.08C940.829,1344.91 959.649,1326.19 982.712,1326.19C1005.88,1326.19 1024.6,1345.02 1024.6,1368.08C1024.7,1391.14 1005.88,1409.96 982.712,1409.96Z" style="fill:rgb(50,222,132);fill-rule:nonzero;"/>
    </g>
</svg>
