<?xml version="1.0" encoding="UTF-8" standalone="no"?>
<!DOCTYPE svg PUBLIC "-//W3C//DTD SVG 1.1//EN" "http://www.w3.org/Graphics/SVG/1.1/DTD/svg11.dtd">
<svg width="100%" height="100%" viewBox="0 0 32 32" version="1.1" xmlns="http://www.w3.org/2000/svg" xmlns:xlink="http://www.w3.org/1999/xlink" xml:space="preserve" style="fill-rule:evenodd;clip-rule:evenodd;stroke-linejoin:round;stroke-miterlimit:2;">
    <g transform="matrix(1.04519,0,0,1.04519,-0.723014,-0.723014)">
        <path d="M16.343,29.366L16.343,29.371L29.371,29.371L29.371,16L29.37,15.914C29.324,8.574 23.351,2.629 16,2.629C8.621,2.629 2.629,8.621 2.629,16C2.629,23.379 8.621,29.371 16,29.371C16.114,29.371 16.228,29.369 16.343,29.366ZM13.031,16.835L13.057,11.631C13.244,11.388 13.431,11.184 13.622,11.021C13.848,10.828 14.058,10.693 14.289,10.697C14.777,10.706 15.205,11.087 15.684,11.668C15.684,11.668 15.685,14.483 15.685,16.289C15.685,17.143 15.902,17.221 16.157,17.468C16.412,17.715 17.216,17.771 17.216,17.771L21.446,17.771C21.667,17.936 21.858,18.104 22.016,18.276C22.208,18.484 22.359,18.676 22.37,18.9C22.38,19.128 22.24,19.342 22.043,19.588C21.873,19.799 21.659,20.011 21.401,20.228C21.4,20.229 11.699,20.229 11.699,20.229C10.871,20.229 10.199,20.901 10.199,21.729C10.199,22.557 10.871,23.229 11.699,23.229L22.416,23.229L22.814,22.932C24.747,21.493 25.423,20.034 25.367,18.766C25.309,17.479 24.476,16.163 22.746,15.019L22.37,14.771L19.513,14.828C19.311,14.827 18.892,14.714 18.892,14.714C18.649,14.505 18.685,14.219 18.685,13.519C18.685,12.302 18.685,10.637 18.685,10.637L18.374,10.232C17.037,8.494 15.631,7.721 14.343,7.698C13.01,7.674 11.594,8.413 10.316,10.308L10.062,10.685L10.032,16.82C10.027,17.648 10.696,18.324 11.524,18.328C12.352,18.332 13.027,17.663 13.031,16.835Z" style="fill:rgb(0,212,209);"/>
    </g>
</svg>
