<?xml version="1.0" encoding="UTF-8" standalone="no"?>
<!DOCTYPE svg PUBLIC "-//W3C//DTD SVG 1.1//EN" "http://www.w3.org/Graphics/SVG/1.1/DTD/svg11.dtd">
<svg width="100%" height="100%" viewBox="0 0 32 32" version="1.1" xmlns="http://www.w3.org/2000/svg" xmlns:xlink="http://www.w3.org/1999/xlink" xml:space="preserve" style="fill-rule:evenodd;clip-rule:evenodd;stroke-linejoin:round;stroke-miterlimit:2;">
    <g transform="matrix(0.942667,0,0,0.942667,-17.5221,-3.25006)">
        <path d="M28.699,35.455L28.699,35.995C28.699,36.354 28.99,36.646 29.349,36.646C29.708,36.646 30,36.354 30,35.995L30,35.429C30.065,35.493 30.131,35.563 30.201,35.639C30.396,35.85 30.671,35.97 30.959,35.97L35.121,35.97L35.121,36.197C35.121,36.445 35.322,36.646 35.57,36.646C35.818,36.646 36.02,36.445 36.02,36.197L36.02,35.97L40.467,35.97C40.802,35.97 41.116,35.807 41.31,35.534C41.316,35.525 41.322,35.517 41.328,35.509L41.328,35.959C41.328,36.338 41.636,36.646 42.015,36.646C42.394,36.646 42.702,36.338 42.702,35.959L42.702,35.773C42.877,35.899 43.089,35.97 43.309,35.97L44.184,35.97C44.732,35.97 45.184,35.543 45.214,34.996C45.214,34.996 45.416,31.323 44.753,28.476C44.45,27.177 43.944,26.051 43.247,25.367C42.983,24.691 42.785,23.339 42.303,21.919C41.688,20.106 40.667,18.217 38.82,17.099C40.014,16.859 41.328,16.387 42.356,15.521C42.452,15.44 42.537,15.347 42.608,15.243C43.328,14.188 43.893,11.943 43.737,9.823C43.626,8.312 43.147,6.887 42.267,5.933C42.267,5.933 42.267,5.933 42.267,5.933C41.787,5.414 40.955,4.957 39.869,4.666C38.594,4.325 36.925,4.17 35.273,4.199C33.321,4.234 31.396,4.531 30.156,5.02C29.399,5.318 28.85,5.714 28.529,6.12C27.539,7.37 27.074,9.976 27.363,12.157C27.583,13.822 28.273,15.196 29.168,15.793C29.168,15.793 29.168,15.793 29.168,15.793C30.129,16.434 31.449,16.798 32.506,17.001C32.439,17.024 32.375,17.055 32.313,17.092C30.459,18.21 29.435,20.103 28.819,21.919C28.337,23.34 28.139,24.691 27.874,25.367C27.178,26.051 26.672,27.177 26.369,28.476C25.706,31.323 25.907,34.996 25.907,34.996C25.938,35.543 26.39,35.97 26.938,35.97L27.793,35.97C28.115,35.97 28.418,35.82 28.614,35.564C28.642,35.527 28.671,35.49 28.699,35.455ZM36.448,32.424C36.549,32.583 36.607,32.772 36.607,32.975L36.607,33.906C36.938,33.906 39.985,33.906 39.985,33.906C40.56,33.314 41.238,33.054 41.896,33.058C42.327,33.061 42.768,33.18 43.181,33.428C43.176,32.508 43.127,31.268 42.95,30.06C42.842,29.319 42.686,28.589 42.455,27.964C42.272,27.471 42.056,27.044 41.741,26.787C41.628,26.694 41.536,26.579 41.471,26.449C41.146,25.799 40.91,24.239 40.348,22.582C40.062,21.739 39.683,20.859 39.112,20.109C38.594,24.643 37.708,26.466 37.099,27.209C36.929,27.416 36.764,27.573 36.607,27.693L36.607,29.965L39.905,29.965C40.637,29.965 41.231,30.516 41.231,31.194C41.231,31.873 40.637,32.424 39.905,32.424L36.448,32.424ZM34.514,29.965L34.514,27.693C34.358,27.573 34.193,27.416 34.023,27.209C33.414,26.466 32.528,24.643 32.01,20.107C31.438,20.859 31.059,21.739 30.774,22.582C30.212,24.239 29.975,25.799 29.651,26.449C29.586,26.579 29.494,26.694 29.381,26.787C29.066,27.044 28.85,27.471 28.667,27.964C28.436,28.589 28.28,29.319 28.172,30.06C27.998,31.25 27.948,32.471 27.941,33.386C28.358,33.115 28.793,32.98 29.231,32.967C29.892,32.948 30.627,33.21 31.385,33.906L34.514,33.906L34.514,32.955C34.514,32.761 34.568,32.579 34.661,32.424L31.146,32.424C30.414,32.424 29.82,31.873 29.82,31.194C29.82,30.516 30.414,29.965 31.146,29.965L34.514,29.965ZM35.592,23.167L36.791,23.167L36.791,21.929C36.787,21.254 36.237,20.707 35.561,20.707C34.882,20.707 34.331,21.258 34.331,21.937C34.331,22.616 34.882,23.167 35.561,23.167C35.571,23.167 35.582,23.167 35.592,23.167ZM39.095,7.325C38.82,10.988 37.756,9.268 35.519,9.633C33.321,9.992 32.198,9.778 31.904,7.365C31.792,7.394 31.684,7.424 31.58,7.455C31.183,7.574 30.845,7.653 30.699,7.838C30.055,8.651 29.919,10.375 30.107,11.794C30.168,12.257 30.269,12.691 30.424,13.048C30.504,13.234 30.574,13.404 30.704,13.49C32.056,14.392 34.411,14.477 34.411,14.477C34.985,14.506 36.319,14.563 36.877,14.547C37.816,14.519 39.321,14.349 40.416,13.528C40.758,12.913 40.968,11.858 40.994,10.781C41.021,9.674 40.876,8.507 40.233,7.811C40.025,7.585 39.624,7.466 39.152,7.34C39.133,7.335 39.114,7.33 39.095,7.325Z" style="fill:rgb(0,212,209);"/>
    </g>
</svg>
